<svg width="54" height="54" viewBox="0 0 54 54" fill="none" xmlns="http://www.w3.org/2000/svg">
<path d="M48.825 30.0375L46.575 32.2875L41.9625 27.675L44.2125 25.425C44.685 24.9525 45.4725 24.9525 45.945 25.425L48.825 28.305C49.2975 28.7775 49.2975 29.565 48.825 30.0375ZM27 42.615L40.635 28.98L45.2475 33.5925L31.635 47.25H27V42.615ZM27 31.5C17.055 31.5 9 35.5275 9 40.5V45H22.5V40.7475L31.5 31.7475C30.015 31.5675 28.5075 31.5 27 31.5ZM27 9C24.6131 9 22.3239 9.94821 20.636 11.636C18.9482 13.3239 18 15.6131 18 18C18 20.3869 18.9482 22.6761 20.636 24.364C22.3239 26.0518 24.6131 27 27 27C29.3869 27 31.6761 26.0518 33.364 24.364C35.0518 22.6761 36 20.3869 36 18C36 15.6131 35.0518 13.3239 33.364 11.636C31.6761 9.94821 29.3869 9 27 9Z" fill="#FF3700"/>
</svg>
