<svg width="26" height="26" viewBox="0 0 26 26" fill="none" xmlns="http://www.w3.org/2000/svg">
<g clip-path="url(#clip0_59_7574)">
<path d="M22.2529 18.3049C21.8977 19.1255 21.4773 19.8809 20.9901 20.5754C20.3261 21.5222 19.7824 22.1775 19.3634 22.5414C18.7138 23.1388 18.0179 23.4447 17.2727 23.4621C16.7377 23.4621 16.0925 23.3098 15.3415 23.001C14.588 22.6936 13.8955 22.5414 13.2624 22.5414C12.5983 22.5414 11.8862 22.6936 11.1244 23.001C10.3615 23.3098 9.74688 23.4708 9.27699 23.4867C8.56235 23.5172 7.85003 23.2025 7.13902 22.5414C6.68522 22.1456 6.1176 21.4671 5.43761 20.5058C4.70804 19.4793 4.10823 18.289 3.63833 16.9319C3.13509 15.4661 2.88281 14.0467 2.88281 12.6725C2.88281 11.0984 3.22295 9.74072 3.90424 8.60301C4.43967 7.68916 5.15199 6.96829 6.04351 6.43909C6.93503 5.90989 7.89831 5.64021 8.93569 5.62296C9.50331 5.62296 10.2477 5.79854 11.1727 6.14361C12.0951 6.48983 12.6873 6.66541 12.947 6.66541C13.1412 6.66541 13.7991 6.46011 14.9145 6.05081C15.9692 5.67124 16.8595 5.51408 17.5887 5.57598C19.5649 5.73547 21.0496 6.51448 22.0369 7.91795C20.2695 8.98882 19.3953 10.4887 19.4127 12.4128C19.4286 13.9115 19.9723 15.1587 21.0409 16.149C21.5251 16.6086 22.0659 16.9638 22.6676 17.2161C22.5371 17.5945 22.3994 17.9569 22.2529 18.3049ZM17.7207 0.470148C17.7207 1.64484 17.2915 2.74165 16.4361 3.75684C15.4038 4.96371 14.1552 5.66109 12.8012 5.55105C12.7839 5.41012 12.7739 5.2618 12.7739 5.10594C12.7739 3.97824 13.2648 2.77137 14.1366 1.78459C14.5719 1.28497 15.1254 0.869541 15.7967 0.538146C16.4666 0.211694 17.1001 0.0311599 17.696 0.000244141C17.7134 0.157282 17.7207 0.31433 17.7207 0.470132V0.470148Z" fill="#0D0D12"/>
</g>
<defs>
<clipPath id="clip0_59_7574">
<rect width="25.6238" height="25.6238" fill="white"/>
</clipPath>
</defs>
</svg>
