<svg width="22" height="22" viewBox="0 0 22 22" fill="none" xmlns="http://www.w3.org/2000/svg">
<path fill-rule="evenodd" clip-rule="evenodd" d="M10.7734 2.02197C5.9396 2.02197 2.02105 5.94052 2.02105 10.7743C2.02105 15.6081 5.9396 19.5266 10.7734 19.5266C15.6072 19.5266 19.5257 15.6081 19.5257 10.7743C19.5257 5.94052 15.6072 2.02197 10.7734 2.02197ZM11.4466 5.38825C11.4466 5.01642 11.1452 4.715 10.7734 4.715C10.4015 4.715 10.1001 5.01642 10.1001 5.38825V10.7743C10.1001 11.1461 10.4015 11.4476 10.7734 11.4476H14.8129C15.1847 11.4476 15.4862 11.1461 15.4862 10.7743C15.4862 10.4025 15.1847 10.101 14.8129 10.101H11.4466V5.38825Z" fill="#999999"/>
</svg>
