<svg width="26" height="26" viewBox="0 0 26 26" fill="none" xmlns="http://www.w3.org/2000/svg">
<g clip-path="url(#clip0_59_7571)">
<path d="M25.3723 13.1071C25.3723 12.2361 25.3016 11.3605 25.151 10.5037H13.0664V15.4374H19.9867C19.6995 17.0285 18.7768 18.4361 17.4257 19.3306V22.5318H21.5543C23.9788 20.3004 25.3723 17.005 25.3723 13.1071Z" fill="#4285F4"/>
<path d="M13.0662 25.6247C16.5217 25.6247 19.4357 24.4901 21.5589 22.5317L17.4302 19.3305C16.2816 20.112 14.7986 20.5545 13.0709 20.5545C9.72849 20.5545 6.89448 18.2996 5.87762 15.2678H1.61719V18.5679C3.79213 22.8942 8.22204 25.6247 13.0662 25.6247Z" fill="#34A853"/>
<path d="M5.87641 15.2678C5.33973 13.6766 5.33973 11.9536 5.87641 10.3624V7.06238H1.62068C-0.196477 10.6826 -0.196477 14.9477 1.62068 18.5679L5.87641 15.2678Z" fill="#FBBC04"/>
<path d="M13.0662 5.07102C14.8928 5.04277 16.6582 5.73009 17.981 6.99174L21.6389 3.33389C19.3227 1.15895 16.2486 -0.0367979 13.0662 0.000863379C8.22204 0.000863379 3.79213 2.73131 1.61719 7.06236L5.87291 10.3624C6.88506 7.32599 9.72378 5.07102 13.0662 5.07102Z" fill="#EA4335"/>
</g>
<defs>
<clipPath id="clip0_59_7571">
<rect width="25.6238" height="25.6238" fill="white"/>
</clipPath>
</defs>
</svg>
