<svg width="503" height="125" viewBox="0 0 503 125" fill="none" xmlns="http://www.w3.org/2000/svg">
<!-- White text mask and display -->
<mask id="mask0_16_471" style="mask-type:alpha" maskUnits="userSpaceOnUse" x="1" y="0" width="406" height="126">
<path d="M19.7029 7.73496H37.1714V51H19.7029V7.73496ZM1.42186 0.219442H55.4524V15.7921H1.42186V0.219442ZM106.222 19.5838V31.6357H67.9677V19.5838H106.222ZM79.9519 25.6097L76.8373 44.5001L70.202 37.1877H108.728V51H59.5719L63.2958 25.6097L59.5719 0.219442H108.389V14.0318H70.202L76.8373 6.71935L79.9519 25.6097ZM126.998 42.4689V28.5888H161.597V42.4689H126.998ZM156.248 0.219442L178.524 51H159.904L142.368 7.93809H146.837L129.301 51H110.681L132.957 0.219442H156.248ZM190.36 7.73496H207.828V51H190.36V7.73496ZM172.079 0.219442H226.109V15.7921H172.079V0.219442ZM261.171 0.219442C265.775 0.219442 269.702 0.986794 272.952 2.5215C276.247 4.01106 278.753 6.15513 280.468 8.9537C282.183 11.7071 283.041 14.9571 283.041 18.7036C283.041 22.45 282.183 25.7226 280.468 28.5211C278.753 31.2746 276.247 33.4186 272.952 34.9533C269.702 36.4429 265.775 37.1877 261.171 37.1877H239.708V23.5785H260.02C261.736 23.5785 263.067 23.1497 264.015 22.2921C264.963 21.4344 265.437 20.2383 265.437 18.7036C265.437 17.1237 264.963 15.9276 264.015 15.1151C263.067 14.2574 261.736 13.8286 260.02 13.8286H241.198L249.052 5.97457V51H231.583V0.219442H261.171ZM4.06244 124V73.2194H21.3955V110.391L16.9946 106.667L42.2494 73.2194H60.5304L19.906 124H4.06244ZM28.4371 100.641L41.3015 90.5525L61.2075 124H41.4369L28.4371 100.641ZM90.0371 125.219C83.8532 125.219 78.4366 124.113 73.7873 121.901C69.1832 119.689 65.5947 116.597 63.0218 112.625C60.449 108.608 59.1625 103.936 59.1625 98.6097C59.1625 93.2834 60.449 88.6342 63.0218 84.662C65.5947 80.6447 69.1832 77.5301 73.7873 75.3184C78.4366 73.1066 83.8532 72.0007 90.0371 72.0007C96.221 72.0007 101.615 73.1066 106.219 75.3184C110.868 77.5301 114.479 80.6447 117.052 84.662C119.625 88.6342 120.912 93.2834 120.912 98.6097C120.912 103.936 119.625 108.608 117.052 112.625C114.479 116.597 110.868 119.689 106.219 121.901C101.615 124.113 96.221 125.219 90.0371 125.219ZM90.0371 109.646C92.7905 109.646 95.1603 109.217 97.1464 108.36C99.1325 107.457 100.645 106.193 101.683 104.568C102.766 102.898 103.308 100.912 103.308 98.6097C103.308 96.3077 102.766 94.3442 101.683 92.7192C100.645 91.0491 99.1325 89.7852 97.1464 88.9276C95.1603 88.0248 92.7905 87.5734 90.0371 87.5734C87.2837 87.5734 84.9139 88.0248 82.9278 88.9276C80.9417 89.7852 79.407 91.0491 78.3237 92.7192C77.2855 94.3442 76.7664 96.3077 76.7664 98.6097C76.7664 100.912 77.2855 102.898 78.3237 104.568C79.407 106.193 80.9417 107.457 82.9278 108.36C84.9139 109.217 87.2837 109.646 90.0371 109.646ZM147.979 110.188C140.622 110.188 134.979 108.224 131.052 104.297C127.171 100.37 125.23 94.6827 125.23 87.2349V73.2194H142.698V85.7453C142.698 88.8147 143.488 91.0942 145.068 92.5838C146.693 94.0733 149.153 94.8181 152.448 94.8181C154.434 94.8181 156.488 94.5924 158.609 94.141C160.776 93.6896 162.965 93.0351 165.177 92.1775L166.057 106.058C163.575 107.412 160.776 108.45 157.661 109.172C154.592 109.849 151.365 110.188 147.979 110.188ZM163.01 124V73.2194H180.479V124H163.01ZM233.901 92.5838V104.636H195.646V92.5838H233.901ZM207.631 98.6097L204.516 117.5L197.881 110.188H236.406V124H187.251L190.975 98.6097L187.251 73.2194H236.068V87.0318H197.881L204.516 79.7194L207.631 98.6097ZM273.139 73.2194C277.743 73.2194 281.67 73.9868 284.92 75.5215C288.215 77.0111 290.72 79.1551 292.436 81.9537C294.151 84.7071 295.009 87.9571 295.009 91.7036C295.009 95.45 294.151 98.7226 292.436 101.521C290.72 104.275 288.215 106.419 284.92 107.953C281.67 109.443 277.743 110.188 273.139 110.188H251.676V96.5785H271.988C273.703 96.5785 275.035 96.1497 275.983 95.2921C276.931 94.4344 277.405 93.2383 277.405 91.7036C277.405 90.1237 276.931 88.9276 275.983 88.1151C275.035 87.2574 273.703 86.8286 271.988 86.8286H253.165L261.019 78.9746V124H243.551V73.2194H273.139ZM340.841 73.2194V88.7921H309.831L317.685 80.9381V124H300.216V73.2194H340.841ZM346.302 124V73.2194H363.635V114.453L359.167 113.438L383.541 73.2194H406.359V124H389.026V81.6829L393.494 82.6985L368.443 124H346.302Z" fill="white"/>
</mask>
<g mask="url(#mask0_16_471)">
<rect width="503" height="125" fill="#FFFFFF"/>
</g>

<!-- Red element masked to show only within white text -->
<path d="M58 -0.0078125H87.5L290.5 123.984H128L58 -0.0078125Z" fill="#FF0000" mask="url(#mask0_16_471)"/>
</svg>
