<svg width="26" height="26" viewBox="0 0 26 26" fill="none" xmlns="http://www.w3.org/2000/svg">
<path d="M3.20438 3.20297H22.4222C22.7054 3.20297 22.977 3.31546 23.1772 3.51568C23.3774 3.71591 23.4899 3.98747 23.4899 4.27063V21.3532C23.4899 21.6363 23.3774 21.9079 23.1772 22.1081C22.977 22.3083 22.7054 22.4208 22.4222 22.4208H3.20438C2.92122 22.4208 2.64965 22.3083 2.44943 22.1081C2.2492 21.9079 2.13672 21.6363 2.13672 21.3532V4.27063C2.13672 3.98747 2.2492 3.71591 2.44943 3.51568C2.64965 3.31546 2.92122 3.20297 3.20438 3.20297ZM21.3546 7.72771L12.8902 15.3081L4.27204 7.70422V20.2855H21.3546V7.72771ZM4.81761 5.33829L12.8784 12.451L20.8229 5.33829H4.81761Z" fill="#666D80"/>
</svg>
