<svg width="26" height="26" viewBox="0 0 26 26" fill="none" xmlns="http://www.w3.org/2000/svg">
<path d="M20.2857 10.6766H21.3533C21.6365 10.6766 21.908 10.7891 22.1083 10.9893C22.3085 11.1895 22.421 11.4611 22.421 11.7442V22.4208C22.421 22.704 22.3085 22.9756 22.1083 23.1758C21.908 23.376 21.6365 23.4885 21.3533 23.4885H4.27078C3.98762 23.4885 3.71606 23.376 3.51583 23.1758C3.31561 22.9756 3.20313 22.704 3.20312 22.4208V11.7442C3.20312 11.4611 3.31561 11.1895 3.51583 10.9893C3.71606 10.7891 3.98762 10.6766 4.27078 10.6766H5.33844V9.60893C5.33844 8.62748 5.53175 7.65564 5.90734 6.7489C6.28292 5.84216 6.83342 5.01827 7.52741 4.32428C8.2214 3.6303 9.04529 3.07979 9.95203 2.70421C10.8588 2.32863 11.8306 2.13531 12.8121 2.13531C13.7935 2.13531 14.7653 2.32863 15.6721 2.70421C16.5788 3.07979 17.4027 3.6303 18.0967 4.32428C18.7907 5.01827 19.3412 5.84216 19.7168 6.7489C20.0924 7.65564 20.2857 8.62748 20.2857 9.60893V10.6766ZM5.33844 12.8119V21.3532H20.2857V12.8119H5.33844ZM11.7444 14.9472H13.8797V19.2179H11.7444V14.9472ZM18.1503 10.6766V9.60893C18.1503 8.19312 17.5879 6.83531 16.5868 5.83418C15.5857 4.83306 14.2279 4.27063 12.8121 4.27063C11.3962 4.27063 10.0384 4.83306 9.03731 5.83418C8.03619 6.83531 7.47376 8.19312 7.47376 9.60893V10.6766H18.1503Z" fill="#666D80"/>
</svg>
