<svg width="26" height="26" viewBox="0 0 26 26" fill="none" xmlns="http://www.w3.org/2000/svg">
<path d="M22.75 6.50163V11.9183H21.125V8.12663H15.0258L17.6583 10.7591L16.51 11.9183L11.9167 7.31413L16.51 2.70996L17.6583 3.86913L15.0258 6.50163H22.75ZM9.555 9.29663C9.83667 9.01496 9.93417 8.59246 9.815 8.21329C9.41417 6.95663 9.20833 5.65663 9.20833 4.33496C9.20833 4.04764 9.0942 3.77209 8.89103 3.56893C8.68787 3.36576 8.41232 3.25163 8.125 3.25163H4.33333C4.04602 3.25163 3.77047 3.36576 3.5673 3.56893C3.36414 3.77209 3.25 4.04764 3.25 4.33496C3.25 9.21936 5.19032 13.9037 8.64412 17.3575C12.0979 20.8113 16.7823 22.7516 21.6667 22.7516C21.954 22.7516 22.2295 22.6375 22.4327 22.4343C22.6359 22.2312 22.75 21.9556 22.75 21.6683V17.8766C22.75 17.5893 22.6359 17.3138 22.4327 17.1106C22.2295 16.9074 21.954 16.7933 21.6667 16.7933C20.3558 16.7933 19.045 16.5875 17.7992 16.1758C17.42 16.0566 16.9975 16.1541 16.7158 16.4358L14.3325 18.8191C11.2558 17.2483 8.76417 14.7566 7.19333 11.68L9.555 9.29663Z" fill="white"/>
</svg>
