<svg width="22" height="22" viewBox="0 0 22 22" fill="none" xmlns="http://www.w3.org/2000/svg">
<path d="M4.99669 4.17797C5.3352 4.08594 5.69139 4.03682 6.05905 4.03682H15.4846C15.8523 4.03682 16.2085 4.08594 16.547 4.17797C16.1047 3.29582 15.1921 2.69031 14.1381 2.69031H7.40556C6.35155 2.69031 5.43897 3.29582 4.99669 4.17797Z" fill="#999999"/>
<path d="M2.01964 10.7694C2.01964 9.28206 3.22535 8.07635 4.71266 8.07635H16.8313C18.3186 8.07635 19.5243 9.28206 19.5243 10.7694V16.1554C19.5243 17.6427 18.3186 18.8484 16.8313 18.8484H4.71266C3.22535 18.8484 2.01964 17.6427 2.01964 16.1554V10.7694Z" fill="#999999"/>
<path d="M4.71254 6.72984C4.34488 6.72984 3.98869 6.77896 3.65018 6.87099C4.09245 5.98885 5.00504 5.38333 6.05905 5.38333H15.4846C16.5386 5.38333 17.4512 5.98885 17.8935 6.87099C17.555 6.77896 17.1988 6.72984 16.8311 6.72984H4.71254Z" fill="#999999"/>
</svg>
