<svg width="32" height="32" viewBox="0 0 32 32" fill="none" xmlns="http://www.w3.org/2000/svg">
<rect width="32" height="32" rx="16" fill="white"/>
<path d="M16.526 7.66666C16.7466 7.66666 16.8577 7.66702 16.9518 7.68521C17.3172 7.75603 17.6128 8.02397 17.7194 8.38052C17.7468 8.47226 17.758 8.58217 17.7799 8.80142C17.8213 9.21584 17.842 9.42347 17.8942 9.55435C18.1027 10.0765 18.7007 10.3239 19.2174 10.1022C19.3469 10.0466 19.5082 9.91476 19.8307 9.65103C20.0014 9.51151 20.0873 9.44164 20.1715 9.39615C20.4989 9.21975 20.8975 9.23899 21.2057 9.44693C21.2851 9.50056 21.3633 9.57915 21.5192 9.73502L22.2643 10.4792C22.4203 10.6351 22.4987 10.7133 22.5524 10.7926C22.761 11.1012 22.7801 11.5001 22.6032 11.8278C22.5577 11.9121 22.488 11.9979 22.3483 12.1686C22.0848 12.4905 21.9529 12.6516 21.8971 12.7809C21.6749 13.2977 21.9226 13.8965 22.445 14.1051C22.5759 14.1573 22.784 14.1777 23.1989 14.2194C23.4189 14.2415 23.5288 14.2534 23.6208 14.2809C23.9767 14.3878 24.2442 14.6828 24.3151 15.0475C24.3334 15.1419 24.3337 15.2531 24.3337 15.4743V16.526C24.3337 16.7467 24.3333 16.8577 24.3151 16.9518C24.2443 17.3171 23.9763 17.6128 23.6198 17.7194C23.528 17.7468 23.4182 17.758 23.1989 17.7799C22.7843 17.8213 22.5769 17.842 22.446 17.8942C21.9237 18.1026 21.6755 18.7007 21.8971 19.2174C21.9528 19.347 22.0853 19.509 22.3493 19.8317C22.4887 20.0021 22.5587 20.0873 22.6042 20.1715C22.7808 20.4991 22.7607 20.8983 22.5524 21.2067C22.4988 21.2859 22.421 21.3645 22.2653 21.5202L21.5212 22.2643C21.365 22.4206 21.2862 22.4987 21.2067 22.5524C20.8984 22.7606 20.5 22.7807 20.1725 22.6042C20.0881 22.5586 20.0026 22.4881 19.8317 22.3483C19.5088 22.0841 19.3472 21.9518 19.2174 21.8961C18.7008 21.6746 18.1027 21.923 17.8942 22.445C17.8419 22.5761 17.8214 22.7839 17.7799 23.1989C17.758 23.4186 17.7469 23.5289 17.7194 23.6208C17.6126 23.977 17.3169 24.2443 16.9518 24.3151C16.8576 24.3333 16.7469 24.3336 16.526 24.3336H15.4743C15.2531 24.3336 15.1418 24.3334 15.0475 24.3151C14.6828 24.2442 14.3878 23.9767 14.2809 23.6208C14.2534 23.5288 14.2415 23.4189 14.2194 23.1989C14.1777 22.7838 14.1574 22.5759 14.1051 22.445C13.8965 21.923 13.2984 21.6755 12.7819 21.8971C12.6523 21.9528 12.4911 22.0853 12.1686 22.3493C11.9978 22.489 11.9122 22.5586 11.8278 22.6042C11.5002 22.7809 11.1011 22.7608 10.7926 22.5524C10.7133 22.4987 10.635 22.4202 10.4792 22.2643L9.736 21.5211C9.57979 21.3649 9.50164 21.2862 9.44791 21.2067C9.23978 20.8985 9.2198 20.4999 9.39616 20.1725C9.44168 20.0882 9.51141 20.0024 9.65104 19.8317C9.91518 19.5087 10.0475 19.3471 10.1032 19.2174C10.3247 18.7008 10.0773 18.1027 9.55534 17.8942C9.42429 17.8419 9.21648 17.8214 8.80143 17.7799C8.58172 17.758 8.47144 17.7469 8.37955 17.7194C8.02331 17.6126 7.756 17.3169 7.68522 16.9518C7.66699 16.8576 7.66666 16.7468 7.66666 16.526V15.4743C7.66666 15.2534 7.66699 15.1427 7.68522 15.0485C7.75597 14.6834 8.0233 14.3877 8.37955 14.2809C8.4715 14.2534 8.58152 14.2424 8.80143 14.2204C9.21666 14.1788 9.42424 14.1575 9.55534 14.1051C10.0771 13.8965 10.3245 13.2993 10.1032 12.7829C10.0475 12.6531 9.91523 12.4915 9.65104 12.1686C9.51142 11.9979 9.44169 11.9121 9.39616 11.8278C9.21967 11.5004 9.23977 11.1019 9.44791 10.7936C9.5016 10.7141 9.57889 10.6354 9.73502 10.4792L10.4792 9.73502C10.6353 9.57883 10.7141 9.50064 10.7936 9.44693C11.1019 9.23873 11.5003 9.21864 11.8278 9.39517C11.9122 9.44067 11.9978 9.51034 12.1686 9.65005C12.4911 9.91385 12.6523 10.0465 12.7819 10.1022C13.2985 10.3239 13.8965 10.0764 14.1051 9.55435C14.1575 9.4234 14.1788 9.21606 14.2204 8.80142C14.2424 8.58182 14.2534 8.47139 14.2809 8.37955C14.3878 8.02324 14.6833 7.75591 15.0485 7.68521C15.1426 7.66701 15.2528 7.66666 15.4733 7.66666H16.526ZM15.9997 12.6667C14.159 12.6668 12.6668 14.159 12.6667 15.9997C12.6667 17.8405 14.1589 19.3335 15.9997 19.3336C17.8406 19.3336 19.3337 17.8406 19.3337 15.9997C19.3335 14.1589 17.8405 12.6667 15.9997 12.6667Z" fill="#000311"/>
</svg>
