<svg width="26" height="26" viewBox="0 0 26 26" fill="none" xmlns="http://www.w3.org/2000/svg">
<g clip-path="url(#clip0_59_7555)">
<path d="M12.8127 3.203C18.5695 3.203 23.3591 7.34552 24.3637 12.8119C23.3601 18.2783 18.5695 22.4209 12.8127 22.4209C7.0559 22.4209 2.26639 18.2783 1.26172 12.8119C2.26532 7.34552 7.0559 3.203 12.8127 3.203ZM12.8127 20.2855C14.9902 20.2851 17.103 19.5455 18.8053 18.1878C20.5077 16.8301 21.6987 14.9347 22.1836 12.8119C21.697 10.6908 20.5051 8.79754 18.8029 7.44164C17.1008 6.08573 14.9889 5.34743 12.8127 5.34743C10.6365 5.34743 8.52467 6.08573 6.82249 7.44164C5.1203 8.79754 3.92848 10.6908 3.44188 12.8119C3.9267 14.9347 5.11775 16.8301 6.8201 18.1878C8.52245 19.5455 10.6353 20.2851 12.8127 20.2855ZM12.8127 17.6164C11.5385 17.6164 10.3165 17.1102 9.41545 16.2092C8.51444 15.3082 8.00825 14.0862 8.00825 12.8119C8.00825 11.5377 8.51444 10.3157 9.41545 9.41466C10.3165 8.51365 11.5385 8.00747 12.8127 8.00747C14.0869 8.00747 15.309 8.51365 16.21 9.41466C17.111 10.3157 17.6172 11.5377 17.6172 12.8119C17.6172 14.0862 17.111 15.3082 16.21 16.2092C15.309 17.1102 14.0869 17.6164 12.8127 17.6164ZM12.8127 15.4811C13.5206 15.4811 14.1995 15.1999 14.7001 14.6993C15.2007 14.1987 15.4819 13.5198 15.4819 12.8119C15.4819 12.104 15.2007 11.4251 14.7001 10.9246C14.1995 10.424 13.5206 10.1428 12.8127 10.1428C12.1048 10.1428 11.4259 10.424 10.9253 10.9246C10.4248 11.4251 10.1436 12.104 10.1436 12.8119C10.1436 13.5198 10.4248 14.1987 10.9253 14.6993C11.4259 15.1999 12.1048 15.4811 12.8127 15.4811Z" fill="#666D80"/>
</g>
<defs>
<clipPath id="clip0_59_7555">
<rect width="25.6238" height="25.6238" fill="white"/>
</clipPath>
</defs>
</svg>
