<svg width="40" height="40" viewBox="0 0 40 40" fill="none" xmlns="http://www.w3.org/2000/svg">
<path d="M29.416 10.5807C26.9993 8.16406 23.6827 6.66406 19.9993 6.66406C16.4631 6.66406 13.0717 8.06882 10.5713 10.5693C8.07077 13.0698 6.66602 16.4612 6.66602 19.9974C6.66602 23.5336 8.07077 26.925 10.5713 29.4255C13.0717 31.926 16.4631 33.3307 19.9993 33.3307C26.216 33.3307 31.3993 29.0807 32.8827 23.3307H29.416C28.0493 27.2141 24.3493 29.9974 19.9993 29.9974C17.3472 29.9974 14.8036 28.9438 12.9283 27.0685C11.0529 25.1931 9.99935 22.6496 9.99935 19.9974C9.99935 17.3452 11.0529 14.8017 12.9283 12.9263C14.8036 11.051 17.3472 9.9974 19.9993 9.9974C22.766 9.9974 25.2327 11.1474 27.0327 12.9641L21.666 18.3307H33.3327V6.66406L29.416 10.5807Z" fill="white"/>
</svg>
