<svg width="39" height="39" viewBox="0 0 39 39" fill="none" xmlns="http://www.w3.org/2000/svg">
<path d="M32.0002 19.2C32.0002 20.0487 32.3373 20.8626 32.9375 21.4628C33.5376 22.0629 34.3515 22.4 35.2002 22.4V28.8C35.2002 29.6487 34.8631 30.4627 34.2629 31.0628C33.6628 31.6629 32.8489 32 32.0002 32H6.4002C5.5515 32 4.73757 31.6629 4.13745 31.0628C3.53734 30.4627 3.2002 29.6487 3.2002 28.8V22.4C4.9762 22.4 6.4002 20.96 6.4002 19.2C6.4002 18.3513 6.06305 17.5374 5.46294 16.9373C4.86282 16.3372 4.04889 16 3.2002 16V9.60002C3.2002 7.82402 4.6402 6.40002 6.4002 6.40002H32.0002C32.8489 6.40002 33.6628 6.73717 34.2629 7.33728C34.8631 7.9374 35.2002 8.75133 35.2002 9.60002V16C34.3515 16 33.5376 16.3372 32.9375 16.9373C32.3373 17.5374 32.0002 18.3513 32.0002 19.2ZM26.4002 26C26.4002 23.6 21.6002 22.4 19.2002 22.4C16.8002 22.4 12.0002 23.6 12.0002 26V27.2H26.4002V26ZM19.2002 19.6C20.155 19.6 21.0706 19.2207 21.7458 18.5456C22.4209 17.8705 22.8002 16.9548 22.8002 16C22.8002 15.0452 22.4209 14.1296 21.7458 13.4544C21.0706 12.7793 20.155 12.4 19.2002 12.4C18.2454 12.4 17.3297 12.7793 16.6546 13.4544C15.9795 14.1296 15.6002 15.0452 15.6002 16C15.6002 16.9548 15.9795 17.8705 16.6546 18.5456C17.3297 19.2207 18.2454 19.6 19.2002 19.6Z" fill="white"/>
</svg>
